<?xml version="1.0" encoding="UTF-8" standalone="no"?>
<svg
   xmlns:dc="http://purl.org/dc/elements/1.1/"
   xmlns:cc="http://web.resource.org/cc/"
   xmlns:rdf="http://www.w3.org/1999/02/22-rdf-syntax-ns#"
   xmlns:svg="http://www.w3.org/2000/svg"
   xmlns="http://www.w3.org/2000/svg"
   xmlns:sodipodi="http://sodipodi.sourceforge.net/DTD/sodipodi-0.dtd"
   xmlns:inkscape="http://www.inkscape.org/namespaces/inkscape"
   width="486"
   height="363"
   id="svg2"
   sodipodi:version="0.32"
   inkscape:version="0.45.1"
   version="1.0">
  <g
     inkscape:label="Layer 1"
     inkscape:groupmode="layer"
     id="layer1"
     transform="translate(-47.066147,-176.74347)">
    <path
       style="fill:#ffffff;fill-rule:evenodd"
       id="path2648"
       d="M 91.524578,349.82017 C 90.953637,318.82623 107.67405,299.65892 124.02744,283.30554 C 134.79375,272.53922 147.68071,263.36338 157.30514,252.3116 C 143.56178,251.65909 133.57031,262.62932 124.02744,269.68452 C 96.132888,290.4423 63.548467,320.00889 60.530636,362.70713 C 58.613905,389.37823 72.398053,409.60585 86.95705,420.16826 C 124.23134,447.04327 198.49446,435.82836 247.22836,422.41125 C 281.5256,413.0315 316.72004,394.59826 342.53473,374.04438 C 349.79384,368.17185 364.67909,357.56866 363.70033,346.80234 C 362.10985,329.42942 333.88905,337.87119 319.86021,343.78451 C 303.87386,350.47268 288.62158,359.44461 278.26308,364.95011 C 250.32775,379.91692 220.31256,397.45297 188.29908,399.77751 C 160.69001,401.73502 140.50316,388.88885 138.38253,366.49981 C 135.65016,336.89243 158.61015,313.1576 173.16915,296.96734 C 219.29303,245.58265 284.91047,216.1384 352.36307,188.08073 C 356.19653,186.49025 367.69692,184.45118 364.47518,176.74347 L 362.96626,176.74347 C 249.83837,211.77478 148.25165,258.38804 91.524578,349.82017 M 492.97769,370.2517 C 512.51203,344.88561 533.10669,310.83305 533.06591,268.99123 C 532.98435,212.67198 490.81627,180.57693 425.64743,185.02212 C 375.60853,188.48855 327.56792,212.38651 294.12709,237.99729 C 281.89263,247.33625 253.38636,268.66498 269.16881,285.63009 C 280.8731,298.19079 306.03528,285.30383 318.31052,279.55364 C 349.58993,264.91308 393.7563,244.48155 432.49872,244.8078 C 456.02965,245.01171 476.869,256.51209 477.80697,279.55364 C 478.98964,306.7549 454.64308,335.30196 441.51144,348.35204 C 392.61441,397.28984 327.6087,430.60833 254.03887,451.93705 C 246.94289,454.01691 237.93017,453.52753 234.38218,458.74757 C 240.54019,464.25307 249.34899,459.60398 255.54778,457.97272 C 358.76577,431.5463 448.36273,385.4632 501.99041,311.32243 C 505.78309,306.14318 508.67857,299.94439 514.14329,296.19249 C 509.41264,338.31979 484.94374,364.82776 467.97863,392.19215 C 479.92761,390.07151 486.28953,379.01973 492.97769,370.2517"
       clip-rule="evenodd"
       clip-path="none" />
    <path
       style="fill-rule:evenodd"
       id="path2650"
       d="M 362.92548,176.74347 L 364.4344,176.74347 C 367.69692,184.4104 356.15575,186.44947 352.32229,188.03995 C 284.91047,216.09762 219.21146,245.54187 173.12837,296.92656 C 158.65093,313.07604 135.60938,336.85165 138.34174,366.45902 C 140.4216,388.88885 160.60844,401.69424 188.2583,399.73673 C 220.27178,397.41219 250.28697,379.87614 278.2223,364.90933 C 288.54002,359.36304 303.83308,350.47268 319.81943,343.74373 C 333.84827,337.87119 362.06907,329.38864 363.65955,346.76156 C 364.59752,357.52788 349.75306,368.13107 342.45317,373.96282 C 316.72004,394.55748 281.44404,412.94994 247.22836,422.37047 C 198.45368,435.78758 124.14978,447.00249 86.95705,420.0867 C 72.31649,409.56507 58.613905,389.29667 60.489854,362.62556 C 63.507686,319.96811 96.051325,290.40152 123.98665,269.64374 C 133.52953,262.54775 143.56178,251.65909 157.26436,252.27082 C 147.59914,263.3226 134.75297,272.49844 123.98665,283.26476 C 107.71483,299.57736 90.872074,318.78545 91.483797,349.82017 C 148.25165,258.34726 249.79759,211.77478 362.92548,176.74347"
       clip-rule="evenodd"
       clip-path="none" />
    <path
       style="fill-rule:evenodd"
       id="path2652"
       d="M 468.0602,392.19215 C 485.0253,364.78698 509.45342,338.31979 514.18408,296.19249 C 508.76014,299.98517 505.82387,306.1024 502.07197,311.28165 C 448.36273,385.42242 358.80655,431.5463 255.62935,458.0135 C 249.43056,459.60398 240.62175,464.21229 234.42296,458.74757 C 238.01174,453.52753 247.06523,454.01691 254.07965,451.97784 C 327.64948,430.60833 392.61441,397.28984 441.55222,348.39282 C 454.64308,335.30196 478.98964,306.7549 477.84776,279.59442 C 476.90978,256.55287 456.11121,244.97093 432.53951,244.76702 C 393.7563,244.44077 349.63071,264.8723 318.31052,279.59442 C 306.07607,285.34462 280.8731,298.23157 269.25037,285.5893 C 253.42715,268.6242 281.9742,247.33625 294.12709,237.95651 C 327.52714,212.38651 375.64931,188.48855 425.729,185.0629 C 490.81627,180.57693 532.98435,212.6312 533.06591,268.95045 C 533.14747,310.83305 512.47125,344.92639 493.01848,370.2517 C 486.28953,378.97895 479.92761,390.07151 468.0602,392.19215"
       clip-rule="evenodd"
       clip-path="none" />
    <path
       id="path2654"
       d="M 64.078627,518.81872 C 64.527223,522.20358 66.240046,524.89516 69.257877,527.0158 C 75.048851,530.97161 85.244227,532.92912 99.803223,532.92912 C 106.32826,532.92912 112.32314,532.48052 117.66552,531.62411 C 128.0648,529.95207 133.24406,527.0158 133.24406,522.65218 C 133.24406,519.43044 131.04185,517.1059 126.63745,515.71933 C 122.19227,514.37354 115.21863,513.19087 105.71654,512.2529 L 88.139713,510.41773 C 76.761674,509.23507 68.646155,507.88928 63.874719,506.50271 C 55.636855,503.97425 51.558705,500.3447 51.558705,495.41014 C 51.558705,490.06776 55.596074,485.70414 63.670812,482.27849 C 71.745549,478.85285 83.205151,477.14002 98.008837,477.14002 C 111.62986,477.14002 123.21181,478.64894 132.75468,481.66677 C 142.25677,484.64382 147.06899,489.45604 147.06899,496.06264 L 130.10388,496.06264 C 129.24747,492.92247 127.4123,490.43479 124.51681,488.72197 C 119.21522,485.66336 110.20251,484.11366 97.560241,484.11366 C 87.324083,484.11366 79.983413,485.09242 75.497447,487.09071 C 71.052264,489.089 68.809281,491.41355 68.809281,494.02357 C 68.809281,496.95983 71.460079,499.08047 76.720893,500.42626 C 80.18732,501.28267 87.976587,502.34299 100.21104,503.648 L 118.31803,505.52395 C 127.08605,506.46192 133.815,507.72615 138.54565,509.31663 C 146.78351,512.08977 150.90245,516.08636 150.90245,521.34717 C 150.90245,527.95378 145.64163,532.64365 135.16079,535.49835 C 124.67994,538.35306 112.48627,539.73963 98.62056,539.73963 C 82.430303,539.73963 69.747256,537.86368 60.530636,534.071 C 51.395579,530.35989 46.868832,525.2622 47.07274,518.8595 L 64.078627,518.8595 L 64.078627,518.81872 z "
       clip-path="none" />
    <path
       id="path2656"
       d="M 165.29832,478.64894 L 217.98802,478.64894 C 228.42808,478.64894 236.82907,480.15785 243.23177,483.1349 C 249.63447,486.11195 252.81542,490.27167 252.81542,495.65483 C 252.81542,500.30392 250.0015,504.3005 244.25131,507.76693 C 238.50111,511.19258 229.77387,512.9054 217.98802,512.9054 L 181.2031,512.9054 L 181.2031,537.98603 L 165.25754,537.98603 L 165.25754,478.64894 L 165.29832,478.64894 z M 227.12308,486.80524 C 223.61587,485.94883 218.80365,485.54101 212.72721,485.54101 L 181.2031,485.54101 L 181.2031,506.09489 L 212.72721,506.09489 C 219.82319,506.09489 225.57338,505.36082 230.01856,503.81113 C 234.46375,502.30221 236.66595,499.56985 236.66595,495.69561 C 236.70673,491.33199 233.52577,488.35494 227.12308,486.80524"
       clip-path="none" />
    <path
       id="path2658"
       d="M 284.09484,478.64894 L 301.63088,478.64894 L 343.30958,537.94524 L 326.26291,537.94524 L 314.31393,520.20529 L 269.25037,520.20529 L 256.81201,537.94524 L 240.86644,537.94524 L 284.09484,478.64894 z M 309.86875,513.63947 L 292.21035,487.45774 L 273.85868,513.63947 L 309.86875,513.63947 z "
       clip-path="none" />
    <path
       id="path2660"
       d="M 425.19884,482.97178 C 432.53951,486.96837 436.61766,491.45433 437.43329,496.47046 L 423.32289,496.47046 C 421.77319,492.63699 418.63301,489.61916 413.98392,487.37618 C 409.33483,485.09242 402.80979,484.0321 394.4088,484.0321 C 384.13186,484.0321 375.85322,486.07117 369.53208,490.14932 C 363.21095,494.30904 360.07078,500.54861 360.07078,509.03116 C 360.07078,516.0048 362.92548,521.63264 368.63489,525.87392 C 374.38508,530.23754 382.86764,532.35818 394.20489,532.35818 C 404.60418,532.35818 412.51579,530.1152 418.02129,525.54767 C 420.83521,523.18234 422.99663,520.04216 424.42399,516.16792 L 438.57517,516.16792 C 437.35172,522.36671 433.19201,527.66831 426.21837,531.8688 C 417.85817,536.96649 406.64325,539.53572 392.45129,539.53572 C 380.21684,539.53572 369.98068,537.41509 361.66125,533.25537 C 350.73181,527.74987 345.30787,519.22653 345.30787,507.68537 C 345.30787,498.91735 349.4268,491.69902 357.62389,486.15274 C 366.47347,480.07629 378.70792,477.01768 394.32724,477.01768 C 407.49966,477.05846 417.81738,479.05675 425.19884,482.97178"
       clip-path="none" />
    <polygon
       id="polygon2662"
       points="493.688,541.757 495.583,541.757 495.583,541.935 494.033,541.935 494.033,542.376 495.465,542.376 495.465,542.545 494.033,542.545 494.033,543.037 495.609,543.037 495.609,543.21 493.688,543.21 493.688,541.757 "
       clip-path="none"
       transform="matrix(40.781503,0,0,40.781503,-19682.162,-21614.975)" />
  </g>
</svg>
